<?xml version="1.0" encoding="UTF-8" standalone="no"?>
<!-- Created with Inkscape (http://www.inkscape.org/) -->

<svg
   version="1.1"
   id="svg1"
   width="495"
   height="320"
   viewBox="0 0 495 320"
   sodipodi:docname="profanity_logo_mouth.svg"
   inkscape:version="1.4 (e7c3feb100, 2024-10-09)"
   xmlns:inkscape="http://www.inkscape.org/namespaces/inkscape"
   xmlns:sodipodi="http://sodipodi.sourceforge.net/DTD/sodipodi-0.dtd"
   xmlns:xlink="http://www.w3.org/1999/xlink"
   xmlns="http://www.w3.org/2000/svg"
   xmlns:svg="http://www.w3.org/2000/svg">
  <defs
     id="defs1">
    <linearGradient
       id="linearGradient17"
       inkscape:collect="always">
      <stop
         style="stop-color:#150000;stop-opacity:1"
         offset="0"
         id="stop17" />
      <stop
         style="stop-color:#8e2215;stop-opacity:1"
         offset="1"
         id="stop18" />
    </linearGradient>
    <linearGradient
       id="linearGradient14"
       inkscape:collect="always">
      <stop
         style="stop-color:#711406;stop-opacity:1"
         offset="0"
         id="stop14" />
      <stop
         style="stop-color:#b63224;stop-opacity:1"
         offset="1"
         id="stop15" />
    </linearGradient>
    <linearGradient
       inkscape:collect="always"
       xlink:href="#linearGradient14"
       id="linearGradient15"
       x1="5.3097906"
       y1="139.09752"
       x2="212.27319"
       y2="263.68884"
       gradientUnits="userSpaceOnUse" />
    <linearGradient
       inkscape:collect="always"
       xlink:href="#linearGradient17"
       id="linearGradient18"
       x1="5.9335938"
       y1="139.64258"
       x2="228.09921"
       y2="90.950676"
       gradientUnits="userSpaceOnUse" />
  </defs>
  <sodipodi:namedview
     id="namedview1"
     pagecolor="#65ffff"
     bordercolor="#666666"
     borderopacity="1.0"
     inkscape:showpageshadow="2"
     inkscape:pageopacity="0.0"
     inkscape:pagecheckerboard="true"
     inkscape:deskcolor="#d1d1d1"
     inkscape:zoom="2.0970359"
     inkscape:cx="108.48646"
     inkscape:cy="171.19402"
     inkscape:window-width="1366"
     inkscape:window-height="761"
     inkscape:window-x="0"
     inkscape:window-y="0"
     inkscape:window-maximized="1"
     inkscape:current-layer="g1"
     showgrid="false" />
  <g
     inkscape:groupmode="layer"
     inkscape:label="Image"
     id="g1">
    <path
       style="display:inline;fill:#ffffff;fill-opacity:1;stroke:none;stroke-width:0.709875px;stroke-linecap:butt;stroke-linejoin:miter;stroke-opacity:1"
       d="M 60.73076,250.65141 71.03849,251.64041 C 71.03849,251.64041 73.05208,254.58107 76.51485,257.37495 78.60028,259.05754 80.95882,260.57611 83.38441,262.25447 87.51601,263.47452 94.70198,264.80779 98.73046,266.95334 102.17419,268.78744 101.83247,272.20852 103.6446,272.86777 110.35646,273.191 113.43612,272.32988 120.83467,271.41739 125.84472,270.79949 127.64094,272.98709 129.96371,273.11464 133.39723,273.30319 137.81434,272.28696 142.35406,270.39452 148.26466,267.9306 152.49124,263.22489 155.86813,259.27468 157.51496,256.00682 156.44166,248.17905 158.74629,243.46724 161.56433,237.70579 169.49509,229.58211 169.49509,229.58211 L 181.17566,230.0879 C 181.17566,230.0879 176.71417,238.83 174.81265,242.6348 172.76677,246.72845 170.1479,250.17723 167.61719,253.99023 164.19428,259.14746 157.66699,267.92051 157.66699,267.92051 157.66699,267.92051 153.14684,273.185 150.10046,275.34102 147.36219,277.27897 141.60064,279.14122 141.60064,279.14122 141.60064,279.14122 134.30061,282.58725 129.62651,282.93012 124.01091,283.34204 116.86604,283.20726 111.37971,281.94037 105.91084,280.67751 101.45387,278.45204 96.38139,276.04928 92.26259,274.09826 89.3268,272.5632 85.54305,270.0227 81.64826,267.40765 76.77809,264.27242 73.18733,261.25343 69.42274,258.08829 60.73076,250.65141 60.73076,250.65141 Z"
       id="path32"
       sodipodi:nodetypes="ccscscssscsccsscscsssssc" />
    <path
       style="display:inline;fill:#ffffff;fill-opacity:1;stroke:none;stroke-width:0.709875px;stroke-linecap:butt;stroke-linejoin:miter;stroke-opacity:1"
       d="M 55.35462,76.487379 63.24095,81.575341 C 63.24095,81.575341 69.04307,79.013879 71.12728,76.741776 72.79359,74.925257 74.43445,70.127435 74.43445,70.127435 74.43445,70.127435 82.1141,66.778964 85.62796,64.530683 88.37219,62.774835 93.2599,58.425131 93.2599,58.425131 L 97.83906,54.863561 C 102.21417,57.774291 106.42936,60.981809 111.57654,60.714713 116.66755,60.450531 121.09419,56.990513 126.07722,55.881153 126.07722,55.881153 136.00517,60.859217 141.34109,62.2411 147.94981,63.952608 161.69293,64.530681 161.69293,64.530681 161.69293,64.530681 173.28372,66.6514 178.99198,68.092253 185.00083,69.608978 196.79984,73.434606 196.79984,73.434606 196.79984,73.434606 202.51377,76.289821 205.19496,78.013765 207.33479,79.38963 211.30051,82.592932 211.30051,82.592932 211.30051,82.592932 217.07555,86.083789 219.44124,88.44408 220.77414,89.773937 222.74842,93.023246 222.74842,93.023246 L 219.95004,101.41837 226.56439,107.77832 234.19633,87.172091 C 234.19633,87.172091 230.3376,80.870414 228.34517,77.759367 225.77026,73.738794 220.45883,65.802667 220.45883,65.802667 220.45883,65.802667 209.55848,57.065189 203.66858,53.337174 198.79621,50.253207 193.87235,47.028285 188.4047,45.196442 180.67144,42.605545 164.2369,41.380474 164.2369,41.380474 164.2369,41.380474 151.941,39.43009 145.53866,39.34529 139.13632,39.260491 132.40384,40.498208 125.82282,40.871678 120.59872,41.168143 118.17095,40.922712 110.13551,41.438427 104.00656,42.06727 97.86489,41.537936 91.73351,43.161259 91.73351,43.161259 79.12215,45.671349 73.16246,47.994818 68.95649,49.63458 65.15024,52.159266 61.20576,54.354766 56.49097,56.979029 51.37341,59.058297 47.21388,62.495497 44.52659,64.716118 42.08763,67.362502 40.34514,70.381833 38.77684,73.099332 37.29236,79.285754 37.29236,79.285754 L 45.4331,84.882511 Z"
       id="path1"
       sodipodi:nodetypes="ccscsccscscscscsccccscsscssscssssccc" />
    <g
       id="g16"
       style="display:inline;fill:none;fill-opacity:1">
      <path
         style="display:inline;fill:none;fill-opacity:1;stroke:none;stroke-width:0.709875px;stroke-linecap:butt;stroke-linejoin:miter;stroke-opacity:1"
         d="M 60.730693,250.65131 71.038422,251.64031 C 71.038422,251.64031 73.052017,254.58097 76.514787,257.37485 78.600217,259.05744 80.958757,260.57601 83.384347,262.25437 87.515947,263.47442 94.701911,264.80769 98.730391,266.95324 102.17412,268.78734 101.8324,272.20842 103.64453,272.86767 110.35639,273.1909 113.43605,272.32978 120.8346,271.41729 125.84465,270.79939 127.64087,272.98699 129.96364,273.11454 133.39717,273.30309 137.81428,272.28686 142.35399,270.39442 148.2646,267.9305 152.49117,263.22479 155.86806,259.27458 157.51489,256.00672 156.4416,248.17895 158.74623,243.46714 161.56427,237.70569 169.49502,229.58201 169.49502,229.58201 L 181.17559,230.0878 C 181.17559,230.0878 176.7141,238.8299 174.81258,242.6347 172.7667,246.72835 170.14784,250.17713 167.61712,253.99013 164.19422,259.14736 157.66692,267.92041 157.66692,267.92041 157.66692,267.92041 153.14677,273.1849 150.10039,275.34092 147.36212,277.27887 141.60057,279.14112 141.60057,279.14112 141.60057,279.14112 134.30054,282.58715 129.62645,282.93002 124.01084,283.34194 116.86597,283.20716 111.37965,281.94027 105.91077,280.67741 101.45381,278.45194 96.38133,276.04918 92.26253,274.09816 89.326737,272.5631 85.542987,270.0226 81.648197,267.40755 76.778024,264.27232 73.187264,261.25333 69.422674,258.08819 60.730693,250.65131 60.730693,250.65131 Z"
         id="path3"
         sodipodi:nodetypes="ccscscssccsccsscscsssssc" />
      <path
         style="display:inline;fill:none;fill-opacity:1;stroke:#000000;stroke-width:1.0732;stroke-linecap:butt;stroke-linejoin:miter;stroke-dasharray:none;stroke-opacity:1"
         d="M 62.37503,56.15363 C 62.37503,56.15363 64.19532,60.591588 66.31808,63.19795 68.68167,66.099998 74.43445,70.127435 74.43445,70.127435"
         id="path4"
         sodipodi:nodetypes="csc" />
      <path
         style="display:inline;fill:none;fill-opacity:1;stroke:#000000;stroke-width:1.0732;stroke-linecap:butt;stroke-linejoin:miter;stroke-dasharray:none;stroke-opacity:1"
         d="M 93.2599,58.425131 C 93.2599,58.425131 93.21384,53.902869 93.03122,51.325443 92.90169,49.497253 92.31168,45.209304 92.31168,45.209304"
         id="path5"
         sodipodi:nodetypes="csc" />
      <path
         style="display:inline;fill:none;fill-opacity:1;stroke:#000000;stroke-width:1.0732;stroke-linecap:butt;stroke-linejoin:miter;stroke-dasharray:none;stroke-opacity:1"
         d="M 124.76956,56.226134 124.69124,49.256749 124.51135,43.14061"
         id="path6"
         sodipodi:nodetypes="ccc" />
      <path
         style="display:inline;fill:none;fill-opacity:1;stroke:#000000;stroke-width:1.0732;stroke-linecap:butt;stroke-linejoin:miter;stroke-dasharray:none;stroke-opacity:1"
         d="M 162.76498,64.729313 C 162.76498,64.729313 163.53744,56.431057 163.7266,52.269848 163.87434,49.019946 163.86152,42.511007 163.86152,42.511007"
         id="path7"
         sodipodi:nodetypes="csc" />
      <path
         style="display:inline;fill:none;fill-opacity:1;stroke:#000000;stroke-width:1.0732;stroke-linecap:butt;stroke-linejoin:miter;stroke-dasharray:none;stroke-opacity:1"
         d="M 196.79984,73.434606 C 196.79984,73.434606 197.7543,67.48519 198.17486,64.502127 198.60316,61.464233 199.34413,55.372889 199.34413,55.372889"
         id="path8"
         sodipodi:nodetypes="csc" />
      <path
         style="display:inline;fill:none;fill-opacity:1;stroke:#000000;stroke-width:1.0732;stroke-linecap:butt;stroke-linejoin:miter;stroke-dasharray:none;stroke-opacity:1"
         d="M 212.08975,83.080977 C 212.08975,83.080977 214.78855,78.792348 215.75877,76.464578 216.52165,74.634251 217.42271,70.753183 217.42271,70.753183"
         id="path9"
         sodipodi:nodetypes="csc" />
    </g>
    <path
       id="path2"
       style="display:inline;fill:#b01219;fill-opacity:1;stroke:none;stroke-width:0.709875px;stroke-linecap:butt;stroke-linejoin:miter;stroke-opacity:1"
       d="M 136.89062,0 C 88.330549,0 67.168814,11.624841 35.505859,57.664062 18.936431,81.756684 7.730009,111.39339 0,140.5957 9.4414169,179.49607 15.336571,214.28619 34.400391,246.66797 45.758671,265.96112 57.520646,287.12772 75.197266,300.86719 95.375476,316.55107 117.36255,320.13665 140.60742,318.62891 162.66286,317.19832 183.21919,293.62925 193.91602,270.63867 205.55169,245.63026 202.14183,215.70976 212.06445,182.82617 214.27517,175.49982 214.58151,167.64733 217.15234,160.43945 223.80265,141.79388 238.39588,128.12349 243.60938,107.26953 248.96957,85.828803 253.35652,63.064326 242.66211,48.402344 225.29682,24.594622 159.43534,0 136.89062,0 Z M 145.53906,39.345703 C 151.9414,39.430503 164.23633,41.380859 164.23633,41.380859 164.23633,41.380859 180.67104,42.606369 188.4043,45.197266 193.87195,47.029109 198.7956,50.253924 203.66797,53.337891 209.55787,57.065906 220.45898,65.802734 220.45898,65.802734 220.45898,65.802734 225.77079,73.739193 228.3457,77.759766 230.33813,80.870813 234.19727,87.171875 234.19727,87.171875 L 226.56445,107.77734 207.03711,161.51562 181.17578,230.08789 C 181.17578,230.08789 176.71402,238.82997 174.8125,242.63477 172.76662,246.72842 170.14791,250.17723 167.61719,253.99023 164.19429,259.14746 157.66602,267.91992 157.66602,267.91992 157.66602,267.91992 153.14599,273.18578 150.09961,275.3418 147.36134,277.27975 141.59961,279.14062 141.59961,279.14062 141.59961,279.14062 134.30104,282.58682 129.62695,282.92969 124.01134,283.34161 116.86523,283.20634 111.37891,281.93945 105.91003,280.67659 101.45334,278.45159 96.380859,276.04883 92.262059,274.09781 89.326719,272.56394 85.542969,270.02344 81.648179,267.40839 76.77826,264.2729 73.1875,261.25391 69.42291,258.08877 60.730469,250.65039 60.730469,250.65039 60.730469,250.65039 34.611578,222.46834 25.914062,205.59961 15.386515,185.18155 5.9335938,139.64258 5.9335938,139.64258 5.9335938,139.64258 12.796219,118.62414 21.203125,101.64844 29.61003,84.672732 39.561553,71.739609 40.345703,70.380859 42.088194,67.361528 44.527554,64.716715 47.214844,62.496094 51.374374,59.058894 56.490288,56.979732 61.205078,54.355469 65.149558,52.159969 68.956139,49.633903 73.162109,47.994141 79.121799,45.670672 91.734375,43.162109 91.734375,43.162109 97.865755,41.538786 104.00582,42.066343 110.13477,41.4375 118.17021,40.921785 120.59817,41.167559 125.82227,40.871094 132.40329,40.497624 139.13672,39.260904 145.53906,39.345703 Z" />
    <path
       id="path13"
       style="display:inline;fill:#980f16;fill-opacity:1;stroke:none;stroke-width:0.709875px;stroke-linecap:butt;stroke-linejoin:miter;stroke-opacity:1"
       d="M 78.53268,258.90623 C 80.61811,260.58882 80.958757,260.57601 83.384347,262.25437 87.515947,263.47442 94.701911,264.80769 98.730391,266.95324 102.17412,268.78734 101.8324,272.20842 103.64453,272.86767 110.35639,273.1909 113.43605,272.32978 120.8346,271.41729 125.84465,270.79939 127.64087,272.98699 129.96364,273.11454 133.39717,273.30309 137.81428,272.28686 142.35399,270.39442 148.2646,267.9305 152.49117,263.22479 155.86806,259.27458 157.51489,256.00672 156.4416,248.17895 158.74623,243.46714 161.56427,237.70569 169.49502,229.58201 169.49502,229.58201 L 181.17559,230.0878 182.28574,227.14419 158.81812,222.37909 C 158.81812,222.37909 159.47232,228.32513 159.15531,231.27587 158.78905,234.685 156.59121,241.2374 156.59121,241.2374 156.59121,241.2374 153.99026,248.76946 151.40418,251.66475 147.116,256.46565 141.33318,260.23 135.19082,262.15575 130.63805,263.58313 124.23216,263.10392 118.73902,263.10947 113.04752,263.11522 107.35555,262.71062 101.69116,262.15575 93.933176,261.3958 78.53268,258.90623 78.53268,258.90623 Z"
       sodipodi:nodetypes="ccscssscsccccscsssscc" />
    <path
       id="path10"
       style="display:inline;mix-blend-mode:normal;fill:url(#linearGradient15);stroke:none;stroke-width:1px;stroke-linecap:butt;stroke-linejoin:miter;stroke-opacity:1"
       d="M 5.9335938,139.64258 C 5.9335938,139.64258 15.386515,185.18155 25.914062,205.59961 34.611579,222.46834 60.730469,250.65039 60.730469,250.65039 L 71.039062,251.64062 C 71.039062,251.64062 73.052855,254.58112 76.515625,257.375 77.165487,257.89933 77.848254,258.40593 78.544922,258.9082 78.565751,258.91157 93.938667,261.39681 101.69141,262.15625 107.3558,262.71112 113.04678,263.11513 118.73828,263.10938 124.23142,263.10383 130.63864,263.58363 135.19141,262.15625 141.33377,260.2305 147.11612,256.46496 151.4043,251.66406 153.99038,248.76877 156.5918,241.23828 156.5918,241.23828 156.5918,241.23828 158.78999,234.68452 159.15625,231.27539 159.47326,228.32465 158.81836,222.37891 158.81836,222.37891 L 182.28574,227.14419 196.44787,211.63329 209.48273,154.7854 Z"
       sodipodi:nodetypes="csccscsssscsccccc" />
    <path
       id="path15"
       style="display:inline;fill:url(#linearGradient18);stroke:none;stroke-width:1px;stroke-linecap:butt;stroke-linejoin:miter;stroke-opacity:1"
       d="M 226.56445,107.77734 219.94922,101.41797 222.74805,93.023438 C 222.74805,93.023437 220.77431,89.773216 219.44141,88.443359 217.07572,86.083068 211.30078,82.59375 211.30078,82.59375 211.30078,82.59375 207.33514,79.389537 205.19531,78.013672 202.51412,76.289728 196.80078,73.435547 196.80078,73.435547 196.80078,73.435547 185.00104,69.608522 178.99219,68.091797 173.28393,66.650944 161.69336,64.53125 161.69336,64.53125 161.69336,64.53125 147.95052,63.951742 141.3418,62.240234 136.00588,60.858351 126.07812,55.880859 126.07812,55.880859 121.0951,56.990219 116.66718,60.450662 111.57617,60.714844 106.42899,60.98194 102.21495,57.774011 97.839844,54.863281 L 93.259766,58.425781 C 93.259766,58.425781 88.373136,62.775402 85.628906,64.53125 82.115046,66.779531 74.433594,70.126953 74.433594,70.126953 74.433594,70.126953 72.793263,74.925669 71.126953,76.742188 69.042743,79.014291 63.240234,81.576172 63.240234,81.576172 L 55.355469,76.488281 45.433594,84.882812 37.292969,79.285156 C 37.292969,79.285156 38.777403,73.098358 40.345703,70.380859 40.345703,70.380859 26.691124,90.729778 21.203125,101.64844 15.0734,113.84385 5.9335938,139.64258 5.9335938,139.64258 L 209.48242,154.78516 Z"
       sodipodi:nodetypes="cccscscscscsccscscccccsccc" />
  </g>
</svg>
