<?xml version="1.0" encoding="UTF-8" standalone="no"?>
<!-- Created with Inkscape (http://www.inkscape.org/) -->

<svg
   version="1.1"
   id="svg1"
   width="495"
   height="320"
   viewBox="0 0 495 320"
   sodipodi:docname="profanity_logo_gray_background.svg"
   inkscape:version="1.4 (e7c3feb100, 2024-10-09)"
   xmlns:inkscape="http://www.inkscape.org/namespaces/inkscape"
   xmlns:sodipodi="http://sodipodi.sourceforge.net/DTD/sodipodi-0.dtd"
   xmlns:xlink="http://www.w3.org/1999/xlink"
   xmlns="http://www.w3.org/2000/svg"
   xmlns:svg="http://www.w3.org/2000/svg">
  <defs
     id="defs1">
    <linearGradient
       id="linearGradient17"
       inkscape:collect="always">
      <stop
         style="stop-color:#150000;stop-opacity:1"
         offset="0"
         id="stop17" />
      <stop
         style="stop-color:#8e2215;stop-opacity:1"
         offset="1"
         id="stop18" />
    </linearGradient>
    <linearGradient
       id="linearGradient14"
       inkscape:collect="always">
      <stop
         style="stop-color:#711406;stop-opacity:1"
         offset="0"
         id="stop14" />
      <stop
         style="stop-color:#b63224;stop-opacity:1"
         offset="1"
         id="stop15" />
    </linearGradient>
    <linearGradient
       inkscape:collect="always"
       xlink:href="#linearGradient14"
       id="linearGradient15"
       x1="5.3097906"
       y1="139.09752"
       x2="212.27319"
       y2="263.68884"
       gradientUnits="userSpaceOnUse" />
    <linearGradient
       inkscape:collect="always"
       xlink:href="#linearGradient17"
       id="linearGradient18"
       x1="5.9335938"
       y1="139.64258"
       x2="228.09921"
       y2="90.950676"
       gradientUnits="userSpaceOnUse" />
  </defs>
  <sodipodi:namedview
     id="namedview1"
     pagecolor="#65ffff"
     bordercolor="#666666"
     borderopacity="1.0"
     inkscape:showpageshadow="2"
     inkscape:pageopacity="0.0"
     inkscape:pagecheckerboard="true"
     inkscape:deskcolor="#d1d1d1"
     inkscape:zoom="1.0485179"
     inkscape:cx="217.92666"
     inkscape:cy="171.67089"
     inkscape:window-width="1366"
     inkscape:window-height="761"
     inkscape:window-x="0"
     inkscape:window-y="0"
     inkscape:window-maximized="1"
     inkscape:current-layer="g1"
     showgrid="false" />
  <g
     inkscape:groupmode="layer"
     inkscape:label="Image"
     id="g1">
    <rect
       style="font-variation-settings:normal;opacity:1;vector-effect:none;fill:#253536;fill-opacity:1;fill-rule:evenodd;stroke-width:3.77953;stroke-linecap:butt;stroke-linejoin:miter;stroke-miterlimit:4;stroke-dasharray:none;stroke-dashoffset:0;stroke-opacity:1;stop-color:#000000;stop-opacity:1"
       id="rect1"
       width="495"
       height="320"
       x="0"
       y="0" />
    <path
       style="display:inline;fill:#ffffff;fill-opacity:1;stroke:none;stroke-width:0.709875px;stroke-linecap:butt;stroke-linejoin:miter;stroke-opacity:1"
       d="M 60.73069,250.65131 71.03842,251.64031 C 71.03842,251.64031 73.05201,254.58097 76.51478,257.37485 78.60021,259.05744 80.95875,260.57601 83.38434,262.25437 87.51594,263.47442 94.70191,264.80769 98.73039,266.95324 102.17412,268.78734 101.8324,272.20842 103.64453,272.86767 110.35639,273.1909 113.43605,272.32978 120.8346,271.41729 125.84465,270.79939 127.64087,272.98699 129.96364,273.11454 133.39716,273.30309 137.81427,272.28686 142.35399,270.39442 148.26459,267.9305 152.49117,263.22479 155.86806,259.27458 157.51489,256.00672 156.44159,248.17895 158.74622,243.46714 161.56426,237.70569 169.49502,229.58201 169.49502,229.58201 L 181.17559,230.0878 C 181.17559,230.0878 176.7141,238.8299 174.81258,242.6347 172.7667,246.72835 170.14783,250.17713 167.61712,253.99013 164.19421,259.14736 157.66692,267.92041 157.66692,267.92041 157.66692,267.92041 153.14677,273.1849 150.10039,275.34092 147.36212,277.27887 141.60057,279.14112 141.60057,279.14112 141.60057,279.14112 134.30054,282.58715 129.62644,282.93002 124.01084,283.34194 116.86597,283.20716 111.37964,281.94027 105.91077,280.67741 101.4538,278.45194 96.38132,276.04918 92.26252,274.09816 89.32673,272.5631 85.54298,270.0226 81.64819,267.40755 76.77802,264.27232 73.18726,261.25333 69.42267,258.08819 60.73069,250.65131 60.73069,250.65131 Z"
       id="path32"
       sodipodi:nodetypes="ccscscssscsccsscscsssssc" />
    <path
       id="path1"
       style="display:inline;fill:#ffffff;fill-opacity:1;stroke:none;stroke-width:0.709875px;stroke-linecap:butt;stroke-linejoin:miter;stroke-opacity:1"
       d="M 145.53906 39.345703 C 139.13672 39.260904 132.40329 40.497624 125.82227 40.871094 C 120.59817 41.167559 118.17021 40.921785 110.13477 41.4375 C 104.00582 42.066343 97.865755 41.538786 91.734375 43.162109 C 91.734375 43.162109 79.121799 45.670672 73.162109 47.994141 C 68.956139 49.633903 65.149558 52.159969 61.205078 54.355469 C 56.490288 56.979732 51.374374 59.058894 47.214844 62.496094 C 44.527554 64.716715 42.088193 67.361528 40.345703 70.380859 C 38.777403 73.098358 37.292969 79.285156 37.292969 79.285156 L 45.433594 84.882812 L 55.355469 76.488281 L 63.240234 81.576172 C 63.240234 81.576172 69.042743 79.014291 71.126953 76.742188 C 72.793263 74.925669 74.433594 70.126953 74.433594 70.126953 C 74.433594 70.126953 82.115046 66.779531 85.628906 64.53125 C 88.373136 62.775402 93.259766 58.425781 93.259766 58.425781 L 97.839844 54.863281 C 102.21495 57.774011 106.42899 60.98194 111.57617 60.714844 C 116.66718 60.450662 121.0951 56.990219 126.07812 55.880859 C 126.07812 55.880859 136.00588 60.858351 141.3418 62.240234 C 147.95052 63.951742 161.69336 64.53125 161.69336 64.53125 C 161.69336 64.53125 173.28393 66.650944 178.99219 68.091797 C 185.00104 69.608522 196.80078 73.435547 196.80078 73.435547 C 196.80078 73.435547 202.51412 76.289728 205.19531 78.013672 C 207.33514 79.389537 211.30078 82.59375 211.30078 82.59375 C 211.30078 82.59375 212.72657 83.459622 214.41602 84.589844 L 227.76367 76.876953 C 225.04526 72.677576 220.45898 65.802734 220.45898 65.802734 C 220.45898 65.802734 209.55787 57.065906 203.66797 53.337891 C 198.7956 50.253924 193.87195 47.029109 188.4043 45.197266 C 180.67104 42.606369 164.23633 41.380859 164.23633 41.380859 C 164.23633 41.380859 151.9414 39.430503 145.53906 39.345703 z " />
    <g
       id="g16"
       style="display:inline;fill:none;fill-opacity:1">
      <path
         style="display:inline;fill:none;fill-opacity:1;stroke:none;stroke-width:0.709875px;stroke-linecap:butt;stroke-linejoin:miter;stroke-opacity:1"
         d="M 60.730693,250.65131 71.038422,251.64031 C 71.038422,251.64031 73.052017,254.58097 76.514787,257.37485 78.600217,259.05744 80.958757,260.57601 83.384347,262.25437 87.515947,263.47442 94.701911,264.80769 98.730391,266.95324 102.17412,268.78734 101.8324,272.20842 103.64453,272.86767 110.35639,273.1909 113.43605,272.32978 120.8346,271.41729 125.84465,270.79939 127.64087,272.98699 129.96364,273.11454 133.39717,273.30309 137.81428,272.28686 142.35399,270.39442 148.2646,267.9305 152.49117,263.22479 155.86806,259.27458 157.51489,256.00672 156.4416,248.17895 158.74623,243.46714 161.56427,237.70569 169.49502,229.58201 169.49502,229.58201 L 181.17559,230.0878 C 181.17559,230.0878 176.7141,238.8299 174.81258,242.6347 172.7667,246.72835 170.14784,250.17713 167.61712,253.99013 164.19422,259.14736 157.66692,267.92041 157.66692,267.92041 157.66692,267.92041 153.14677,273.1849 150.10039,275.34092 147.36212,277.27887 141.60057,279.14112 141.60057,279.14112 141.60057,279.14112 134.30054,282.58715 129.62645,282.93002 124.01084,283.34194 116.86597,283.20716 111.37965,281.94027 105.91077,280.67741 101.45381,278.45194 96.38133,276.04918 92.26253,274.09816 89.326737,272.5631 85.542987,270.0226 81.648197,267.40755 76.778024,264.27232 73.187264,261.25333 69.422674,258.08819 60.730693,250.65131 60.730693,250.65131 Z"
         id="path3"
         sodipodi:nodetypes="ccscscssccsccsscscsssssc" />
      <path
         style="display:inline;fill:none;fill-opacity:1;stroke:#000000;stroke-width:1.0732;stroke-linecap:butt;stroke-linejoin:miter;stroke-dasharray:none;stroke-opacity:1"
         d="M 62.37503,56.15363 C 62.37503,56.15363 64.19532,60.591588 66.31808,63.19795 68.68167,66.099998 74.43445,70.127435 74.43445,70.127435"
         id="path4"
         sodipodi:nodetypes="csc" />
      <path
         style="display:inline;fill:none;fill-opacity:1;stroke:#000000;stroke-width:1.0732;stroke-linecap:butt;stroke-linejoin:miter;stroke-dasharray:none;stroke-opacity:1"
         d="M 93.2599,58.425131 C 93.2599,58.425131 93.21384,53.902869 93.03122,51.325443 92.90169,49.497253 92.31168,45.209304 92.31168,45.209304"
         id="path5"
         sodipodi:nodetypes="csc" />
      <path
         style="display:inline;fill:none;fill-opacity:1;stroke:#000000;stroke-width:1.0732;stroke-linecap:butt;stroke-linejoin:miter;stroke-dasharray:none;stroke-opacity:1"
         d="M 124.76956,56.226134 124.69124,49.256749 124.51135,43.14061"
         id="path6"
         sodipodi:nodetypes="ccc" />
      <path
         style="display:inline;fill:none;fill-opacity:1;stroke:#000000;stroke-width:1.0732;stroke-linecap:butt;stroke-linejoin:miter;stroke-dasharray:none;stroke-opacity:1"
         d="M 162.76498,64.729313 C 162.76498,64.729313 163.53744,56.431057 163.7266,52.269848 163.87434,49.019946 163.86152,42.511007 163.86152,42.511007"
         id="path7"
         sodipodi:nodetypes="csc" />
      <path
         style="display:inline;fill:none;fill-opacity:1;stroke:#000000;stroke-width:1.0732;stroke-linecap:butt;stroke-linejoin:miter;stroke-dasharray:none;stroke-opacity:1"
         d="M 196.79984,73.434606 C 196.79984,73.434606 197.7543,67.48519 198.17486,64.502127 198.60316,61.464233 199.34413,55.372889 199.34413,55.372889"
         id="path8"
         sodipodi:nodetypes="csc" />
      <path
         style="display:inline;fill:none;fill-opacity:1;stroke:#000000;stroke-width:1.0732;stroke-linecap:butt;stroke-linejoin:miter;stroke-dasharray:none;stroke-opacity:1"
         d="M 212.08975,83.080977 C 212.08975,83.080977 214.78855,78.792348 215.75877,76.464578 216.52165,74.634251 217.42271,70.753183 217.42271,70.753183"
         id="path9"
         sodipodi:nodetypes="csc" />
    </g>
    <path
       id="path2"
       style="display:inline;fill:#b01219;fill-opacity:1;stroke:none;stroke-width:0.709875px;stroke-linecap:butt;stroke-linejoin:miter;stroke-opacity:1"
       d="M 136.89062,0 C 88.330554,0 67.168814,11.624842 35.505859,57.664062 18.936431,81.756685 7.730009,111.39339 0,140.5957 9.4414169,179.49607 15.336571,214.28619 34.400391,246.66797 45.758671,265.96112 57.520646,287.12772 75.197266,300.86719 95.375476,316.55107 117.36255,320.13665 140.60742,318.62891 162.66286,317.19832 183.21919,293.62925 193.91602,270.63867 200.63276,256.20245 202.34774,240.08692 204.49609,222.75195 L 191.69922,229.37109 182.35352,226.96289 181.17578,230.08789 C 181.17578,230.08789 176.71402,238.82997 174.8125,242.63477 172.76662,246.72842 170.14791,250.17723 167.61719,253.99023 164.19429,259.14746 157.66602,267.91992 157.66602,267.91992 157.66602,267.91992 153.14599,273.18578 150.09961,275.3418 147.36134,277.27975 141.59961,279.14063 141.59961,279.14062 141.59961,279.14062 134.30104,282.58682 129.62695,282.92969 124.01134,283.34161 116.86523,283.20634 111.37891,281.93945 105.91003,280.67659 101.45334,278.45159 96.380859,276.04883 92.262059,274.09781 89.326719,272.56394 85.542969,270.02344 81.648179,267.40839 76.77826,264.2729 73.1875,261.25391 69.42291,258.08877 60.730469,250.65039 60.730469,250.65039 60.730469,250.65039 35.923507,223.83498 26.658203,206.86523 L 21.935547,206.00586 24.246094,202.10547 C 14.409287,180.43237 5.9335938,139.64258 5.9335938,139.64258 5.9335938,139.64258 12.796219,118.62414 21.203125,101.64844 29.61003,84.67273 39.561553,71.739609 40.345703,70.380859 42.088194,67.361528 44.527554,64.716715 47.214844,62.496094 51.374374,59.058894 56.490288,56.979732 61.205078,54.355469 65.149558,52.159969 68.956139,49.633903 73.162109,47.994141 79.121799,45.670672 91.734375,43.162109 91.734375,43.162109 97.865755,41.538786 104.00582,42.066343 110.13477,41.4375 118.17021,40.921785 120.59817,41.167559 125.82227,40.871094 132.40329,40.497624 139.13672,39.260904 145.53906,39.345703 151.9414,39.430503 164.23633,41.380859 164.23633,41.380859 164.23633,41.380859 180.67104,42.606369 188.4043,45.197266 193.87195,47.029109 198.7956,50.253924 203.66797,53.337891 209.55787,57.065906 220.45898,65.802734 220.45898,65.802734 220.45898,65.802734 225.04522,72.677534 227.76367,76.876953 L 227.94141,76.775391 241.29297,81.066406 247.5,76.298828 249.06836,76.302734 C 249.64454,65.712905 248.1825,55.970769 242.66211,48.402344 225.29682,24.594622 159.43535,0 136.89062,0 Z" />
    <path
       id="path13"
       style="display:inline;fill:#980f16;fill-opacity:1;stroke:none;stroke-width:0.709875px;stroke-linecap:butt;stroke-linejoin:miter;stroke-opacity:1"
       d="M 78.53268,258.90623 C 80.61811,260.58882 80.958757,260.57601 83.384347,262.25437 87.515947,263.47442 94.701911,264.80769 98.730391,266.95324 102.17412,268.78734 101.8324,272.20842 103.64453,272.86767 110.35639,273.1909 113.43605,272.32978 120.8346,271.41729 125.84465,270.79939 127.64087,272.98699 129.96364,273.11454 133.39717,273.30309 137.81428,272.28686 142.35399,270.39442 148.2646,267.9305 152.49117,263.22479 155.86806,259.27458 157.51489,256.00672 156.4416,248.17895 158.74623,243.46714 161.56427,237.70569 169.49502,229.58201 169.49502,229.58201 L 181.17559,230.0878 182.28574,227.14419 158.81812,222.37909 C 158.81812,222.37909 159.47232,228.32513 159.15531,231.27587 158.78905,234.685 156.59121,241.2374 156.59121,241.2374 156.59121,241.2374 153.99026,248.76946 151.40418,251.66475 147.116,256.46565 141.33318,260.23 135.19082,262.15575 130.63805,263.58313 124.23216,263.10392 118.73902,263.10947 113.04752,263.11522 107.35555,262.71062 101.69116,262.15575 93.933176,261.3958 78.53268,258.90623 78.53268,258.90623 Z"
       sodipodi:nodetypes="ccscssscsccccscsssscc" />
    <path
       id="path10"
       style="display:inline;mix-blend-mode:normal;fill:url(#linearGradient15);stroke:none;stroke-width:1px;stroke-linecap:butt;stroke-linejoin:miter;stroke-opacity:1"
       d="M 5.9335938,139.64258 C 5.9335938,139.64258 14.409287,180.43237 24.246094,202.10547 L 29.566406,193.12891 30.519531,178.82422 26.705078,167.37891 33.857422,156.41211 31.949219,143.05859 33.449219,141.68945 Z M 51.023438,199.32812 37.671875,208.86719 26.611328,206.85547 C 35.889354,223.82684 60.730469,250.65039 60.730469,250.65039 L 71.039062,251.64062 C 71.039062,251.64062 73.052855,254.58112 76.515625,257.375 77.165487,257.89933 77.848254,258.40593 78.544922,258.9082 78.565751,258.91157 93.938663,261.39681 101.69141,262.15625 107.3558,262.71112 113.04678,263.11513 118.73828,263.10938 124.23142,263.10383 130.63864,263.58363 135.19141,262.15625 141.33377,260.2305 147.11612,256.46496 151.4043,251.66406 153.99038,248.76877 156.5918,241.23828 156.5918,241.23828 156.5918,241.23828 158.78999,234.68452 159.15625,231.27539 159.47326,228.32465 158.81836,222.37891 158.81836,222.37891 L 182.28516,227.14453 182.43359,226.98242 145.44336,217.44922 133.52148,216.49609 122.55469,206.95898 109.20117,208.86719 84.880859,202.66797 73.4375,211.72656 Z" />
    <path
       id="path15"
       style="display:inline;fill:url(#linearGradient18);stroke:none;stroke-width:1px;stroke-linecap:butt;stroke-linejoin:miter;stroke-opacity:1"
       d="M 97.839844,54.863281 93.259766,58.425781 C 93.259766,58.425781 88.373136,62.775402 85.628906,64.53125 82.115046,66.779531 74.433594,70.126953 74.433594,70.126953 74.433594,70.126953 72.793263,74.925668 71.126953,76.742188 69.042743,79.014291 63.240234,81.576172 63.240234,81.576172 L 55.355469,76.488281 45.433594,84.882812 37.292969,79.285156 C 37.292969,79.285156 38.777403,73.098358 40.345703,70.380859 40.345703,70.380859 26.691124,90.729776 21.203125,101.64844 15.0734,113.84385 5.9335938,139.64258 5.9335938,139.64258 L 33.449219,141.68945 42.917969,133.04492 40.056641,122.07617 41.964844,114.44727 49.59375,100.14062 61.992188,101.0957 74.390625,108.72461 86.3125,106.81836 97.279297,93.464844 109.67773,95.373047 122.07617,99.1875 132.0918,88.697266 145.44336,97.757812 160.22656,96.802734 168.33203,88.220703 184.54688,87.265625 193.12891,84.404297 206.48242,89.173828 214.41602,84.589844 C 212.72659,83.459999 211.30078,82.59375 211.30078,82.59375 211.30078,82.59375 207.33514,79.389537 205.19531,78.013672 202.51412,76.289728 196.80078,73.435547 196.80078,73.435547 196.80078,73.435547 185.00104,69.608522 178.99219,68.091797 173.28393,66.650944 161.69336,64.53125 161.69336,64.53125 161.69336,64.53125 147.95052,63.951742 141.3418,62.240234 136.00588,60.858351 126.07812,55.880859 126.07812,55.880859 121.09511,56.990219 116.66718,60.450662 111.57617,60.714844 106.42899,60.98194 102.21495,57.774011 97.839844,54.863281 Z" />
    <g
       id="g20"
       inkscape:label="PR%F@N!TY"
       style="display:inline;fill:#ffffff;fill-opacity:1">
      <path
         id="path20"
         style="fill:#ffffff;fill-opacity:1;stroke:none;stroke-width:1px;stroke-linecap:butt;stroke-linejoin:miter;stroke-opacity:1"
         d="M 69.383649,154.5038 C 69.383649,154.5038 76.088872,150.61054 79.874647,144.25123 82.924864,139.12751 84.545263,136.20454 86.312306,129.23002 86.593818,128.11889 85.153575,126.40874 84.404851,126.36885 81.316757,126.20434 78.578834,128.62844 76.059739,130.42219 74.594811,131.46531 72.24483,134.23709 72.24483,134.23709 L 65.56874,174.7705 64.838982,177.81226 C 64.838982,177.81226 65.524231,181.74056 65.525351,183.11561 65.526445,184.45976 62.945991,186.21522 62.945991,186.21522 62.945991,186.21522 60.684955,187.22608 59.76208,186.66316 57.40363,185.22459 54.735609,184.81154 51.698789,183.04578 50.483436,182.33911 50.272049,180.77952 50.366959,179.53913 50.4478,178.48262 51.009421,177.98889 51.192999,176.94531 54.001945,160.97743 57.875134,144.43908 61.276968,125.79823 61.522916,124.45052 60.772278,121.71943 60.772278,121.71943 60.772278,121.71943 60.198267,119.11372 60.772278,118.02373 61.361378,116.90508 62.470214,116.58689 63.899718,116.72083 65.884303,116.90679 69.383649,118.26216 69.383649,118.26216 H 73.31335 L 77.013466,117.30844 C 77.013466,117.30844 83.760388,114.9569 86.927365,115.99706 89.486442,116.83757 89.789639,120.04049 91.677021,121.60021 93.048652,122.73372 95.176077,122.86543 96.32644,124.22296 97.529253,125.64238 98.233895,129.46846 98.233895,129.46846 98.233895,129.46846 97.220703,136.28627 96.207225,139.48259 94.657868,144.36897 92.465226,148.75282 89.650351,152.83478 85.947302,158.20472 82.970931,162.56993 77.609546,165.94852 76.000633,166.96241 73.302988,166.81703 71.913979,166.27973 70.279309,165.6474 67.568599,162.6285 67.568599,162.6285 L 69.383649,154.5038"
         sodipodi:nodetypes="csssscccscssssscsscccssscsssscc"
         inkscape:label="P" />
      <path
         style="fill:#ffffff;fill-opacity:1;stroke:none;stroke-width:1px;stroke-linecap:butt;stroke-linejoin:miter;stroke-opacity:1"
         d="M 106.89032,119.36649 C 106.89032,119.36649 109.41092,118.74363 110.76805,118.6921 113.2198,118.59901 114.99491,119.95486 117.17473,120.20947 118.01202,120.30727 118.87565,120.36754 119.70368,120.20947 122.85069,119.60873 125.55792,117.5462 128.63931,116.66894 130.34163,116.1843 132.09717,115.66278 133.8658,115.73154 135.20063,115.78343 136.78964,115.87086 137.74353,116.74312 142.90311,121.46116 144.21077,122.6111 147.52214,126.78474 148.61002,128.1559 148.26598,130.2772 148.02793,132.01124 147.77385,133.86202 146.44198,135.79367 145.49898,137.40634 143.62475,140.61154 138.92371,145.83617 138.92371,145.83617 138.92371,145.83617 134.10644,150.7934 131.33685,152.83478 130.02968,153.79825 127.12194,155.27759 127.12194,155.27759 L 126.11035,155.95198 C 138.76212,169.8689 135.43748,167.75029 139.93529,171.46288 140.79011,172.16847 142.11724,172.27679 142.80143,173.14884 143.1636,173.61046 143.55617,174.30351 143.30722,174.83481 141.97369,177.68073 140.57384,179.26415 138.92371,181.07289 137.16622,182.99931 135.71027,184.36019 133.19142,185.7936 132.40384,186.24179 131.25593,185.94674 130.49387,185.4564 129.77247,184.99222 129.1451,183.26465 129.1451,183.26465 129.1451,183.26465 128.78296,181.1703 128.13351,180.14561 126.5924,177.71406 123.55918,174.88135 121.55825,172.81165 118.48799,169.63587 113.06857,163.68256 113.06857,163.68256 L 115.89683,148.27142 C 115.89683,148.27142 123.4799,143.4105 126.78474,140.44107 129.21509,138.25738 131.20579,136.05997 132.76992,133.19142 133.7234,131.44278 136.55318,129.18077 135.55177,127.45913 135.05829,126.61074 133.05329,127.09738 131.50545,127.45913 129.18305,128.00189 125.83866,129.74558 123.41281,131.33685 121.69201,132.46563 118.35491,134.87738 118.35491,134.87738 L 110.09367,179.89271 C 110.09367,179.89271 110.96368,182.22037 110.93665,183.43324 110.91842,184.25131 110.82032,185.19515 110.26226,185.7936 109.56912,186.53691 107.819,186.7509 106.80603,186.83371 102.80923,186.86858 99.580393,185.48671 95.762943,184.44482 95.762943,184.44482 94.932895,183.74792 94.919959,183.26465 94.900351,182.53217 96.100137,181.41008 96.100137,181.41008 Z"
         id="path21"
         inkscape:label="R"
         sodipodi:nodetypes="cssssssssscsccsssssscssccsssssccssscscc" />
      <g
         id="g22"
         inkscape:label="%"
         style="fill:#ffffff;fill-opacity:1">
        <path
           id="path22"
           style="fill:#ffffff;fill-opacity:1;stroke:none;stroke-width:1px;stroke-linecap:butt;stroke-linejoin:miter;stroke-opacity:1"
           d="M 169.52148,116.5625 C 168.04085,116.53624 166.59002,116.76865 165.4707,117.39453 157.82422,121.67017 153.20608,128.44466 153.07227,132.0918 152.96541,135.00461 154.78605,138.49036 157.39453,139.79102 161.81634,141.99587 167.314,139.82875 171.43164,137.09766 174.62802,134.97761 177.04365,131.30622 177.86914,127.56055 178.55516,124.44771 177.92536,119.61823 175.80859,118.20898 174.54412,117.36716 171.98921,116.60627 169.52148,116.5625 Z M 170.16992,122.54297 C 170.26571,122.54533 170.35912,122.55512 170.45117,122.57031 171.27828,122.70678 171.90292,123.68302 172.05273,124.50781 171.74147,126.97893 170.02669,128.58261 168.42773,130.41016 166.90769,132.14751 166.25289,133.19565 164.71875,133.94922 163.54522,134.52565 161.72729,135.50297 160.8418,134.54102 159.60935,133.20215 161.28853,130.85459 162.10547,129.22852 162.53108,128.38135 167.20037,122.46973 170.16992,122.54297 Z" />
        <path
           style="fill:#ffffff;fill-opacity:1;stroke:none;stroke-width:1px;stroke-linecap:butt;stroke-linejoin:miter;stroke-opacity:1"
           d="M 204.71414,124.16511 C 204.71414,124.16511 191.6428,139.05574 185.1772,146.65001 176.82247,156.46317 168.90579,166.05601 160.5242,176.55874 159.51604,177.82204 158.79557,181.08894 158.79557,181.08894 158.79557,181.08894 157.31888,184.69039 156.0536,184.98651 154.97139,185.23979 153.78582,184.39142 152.76976,183.83091 150.75219,182.71792 147.35084,179.53913 147.35084,179.53913 147.35084,179.53913 146.30111,178.02942 146.09907,177.15481 145.94696,176.4963 146.15868,175.12814 146.15868,175.12814 146.15868,175.12814 167.04744,149.12984 177.71718,136.26377 182.631,130.33845 190.65229,121.50922 192.23562,118.85825 192.89401,117.7559 194.65584,117.47445 195.8121,117.42765 196.62195,117.39487 198.78228,118.76795 198.78228,118.76795 Z"
           id="path23"
           sodipodi:nodetypes="csscsscscssscc" />
        <path
           id="path24"
           style="fill:#ffffff;fill-opacity:1;stroke:none;stroke-width:1px;stroke-linecap:butt;stroke-linejoin:miter;stroke-opacity:1"
           d="M 189.79688,159.08203 C 187.45506,159.02557 185.03571,159.84952 182.87695,160.76172 180.50462,161.76417 178.46785,163.49989 176.61914,165.29297 174.72773,167.12746 172.68611,169.07256 171.79102,171.55078 171.23043,173.10288 171.33254,174.87349 171.61133,176.5 171.86752,177.99466 172.43507,179.47205 173.28125,180.73047 174.30852,182.25821 175.69851,183.59353 177.27344,184.54688 178.49361,185.28547 179.91066,186.07662 181.32812,185.91797 184.84674,185.52414 187.78524,182.77262 190.38867,180.37305 192.86675,178.08901 195.06366,175.32296 196.34766,172.20703 197.1517,170.25584 197.45934,168.05376 197.30273,165.94922 197.21785,164.80855 196.96438,163.59311 196.28906,162.66992 195.11754,161.06842 193.33803,159.69905 191.40039,159.27148 190.87227,159.15495 190.33729,159.09506 189.79688,159.08203 Z M 187.99219,165.56641 C 188.32339,165.56034 188.64961,165.60308 188.95703,165.71094 189.52726,165.91099 190.06116,166.43554 190.20898,167.02148 190.46602,168.04038 189.79265,169.09629 189.375,170.06055 188.63415,171.77101 187.62516,173.38065 186.45312,174.83008 185.03923,176.57861 183.93502,178.10449 181.80484,178.82478 180.93391,179.11927 179.62217,179.56325 179.00304,178.8836 178.11982,177.91405 178.48299,176.52919 178.76367,175.24805 178.98031,174.25921 179.56316,173.38048 180.07617,172.50781 180.75548,171.35226 181.50835,170.22708 182.40039,169.22656 183.43041,168.07129 184.45208,166.77549 185.85742,166.12695 186.5082,165.82663 187.26355,165.57976 187.99219,165.56641 Z"
           sodipodi:nodetypes="ssssssssssssssssssssssssss" />
      </g>
      <path
         style="fill:#ffffff;fill-opacity:1;stroke:none;stroke-width:1px;stroke-linecap:butt;stroke-linejoin:miter;stroke-opacity:1"
         d="M 217.82698,151.22982 220.78165,134.37159 C 220.78165,134.37159 230.21518,127.74488 235.72716,127.29053 237.3573,127.15616 238.5375,127.17652 240.44787,128.03372 241.9542,128.70962 243.2534,126.84667 244.25575,125.53473 245.05446,124.48934 245.73222,123.1178 245.48531,121.8256 245.02477,119.41532 242.798,119.0457 240.95366,117.42707 239.42229,116.08312 238.40705,114.07421 236.37262,113.96292 235.29322,113.90388 234.69624,115.08616 233.7449,115.59951 232.05164,116.5132 230.1889,116.60656 228.44857,117.42707 226.31521,118.43288 224.22769,120.18144 221.8733,120.04087 219.44729,119.89602 217.71391,117.48581 215.46662,116.56052 214.54645,116.18166 213.59511,115.75628 212.60048,115.7254 211.33376,115.68608 211.07922,115.85879 210.0239,116.56052 209.29764,117.04344 208.17204,117.93992 208.20849,118.81132 208.24849,119.76752 209.34259,119.93365 209.22854,120.88386 206.8503,140.69909 202.33292,159.07929 199.11274,178.03815 198.96665,178.89827 199.33294,179.82221 199.78713,180.5671 200.94103,182.45955 202.99847,183.62923 204.71414,185.03256 205.99874,186.08329 207.06482,186.95754 208.72275,187.03162 210.0363,187.09031 211.14345,186.84622 212.09469,185.93847 212.82289,185.24356 213.40517,184.36715 213.78065,183.43324 214.27006,182.21597 214.16847,181.21273 213.73974,179.97278 213.49267,179.25821 212.77483,178.79421 212.76907,178.03815 212.72696,172.50888 215.12943,165.56199 215.12943,165.56199 215.12943,165.56199 218.61175,163.69893 220.66244,162.86444 222.1612,162.25455 223.31092,161.65614 224.8569,161.17847 226.40648,160.69969 228.3798,160.6268 229.87565,160 230.96933,159.54172 232.51527,159.10585 233.20843,158.14373 233.64671,157.53538 233.69402,156.6952 233.595,155.95198 233.35921,154.18205 231.48331,151.22982 231.48331,151.22982 231.48331,151.22982 229.35219,146.9413 227.30755,146.15467 226.72101,145.92901 226.03203,146.21383 225.44276,146.43225 222.62949,147.47502 217.82698,151.22982 217.82698,151.22982 Z"
         id="path25"
         sodipodi:nodetypes="ccsssssssssssssssssssssscssssscssc"
         inkscape:label="F" />
      <path
         style="fill:#ffffff;fill-opacity:1;stroke:none;stroke-width:1px;stroke-linecap:butt;stroke-linejoin:miter;stroke-opacity:1"
         d="M 280.37636,171.29428 C 279.58927,170.57055 278.09893,170.92808 277.17303,171.46288 274.52889,172.99014 272.16727,174.53894 269.41758,175.5092 265.90739,176.74781 262.15921,178.18001 258.46786,177.70095 255.17512,177.27362 251.3419,175.97737 249.35456,173.31744 245.73802,168.47691 245.72084,161.96702 246.31982,156.20488 246.81779,151.41452 249.08447,146.83581 251.71492,142.80143 255.18784,137.47493 259.93149,132.93937 265.03406,129.1451 268.54384,126.53523 272.30355,123.37253 276.66724,123.07561 281.43955,122.75089 286.40538,123.46941 290.82936,124.93018 293.43333,125.79 295.62434,128.49924 297.06744,130.83106 298.85395,133.71777 299.80553,137.04869 299.93358,140.44108 300.06452,143.91016 298.89244,147.44942 297.23604,150.50032 296.03349,152.71528 294.62856,154.85139 292.85252,156.62636 291.48449,157.99356 290.06,159.84892 288.13181,160 287.00403,160.08837 285.78711,159.37733 285.09707,158.48092 284.25667,157.38919 284.44845,155.8969 284.25409,154.4346 283.92796,151.98088 284.81551,150.55156 284.59128,147.01635 284.51624,145.83321 284.75924,144.54833 284.25409,143.47582 283.84771,142.61301 282.98266,142.03959 282.23093,141.45266 281.71435,141.04933 281.17657,140.61602 280.54496,140.44108 278.86601,139.97604 277.02919,140.11162 275.31846,140.44108 274.12974,140.67001 273.131,141.29322 272.45232,142.29564 271.19205,144.1571 272.3448,146.32133 271.94653,148.53372 271.48971,151.07135 270.42869,153.49066 269.24898,155.78338 268.1008,158.01483 267.16601,159.07393 265.45555,161.00988 264.67414,161.89431 262.39155,162.78722 261.49353,162.02146 260.41086,161.09825 260.70982,159.22518 260.81914,157.80654 261.01579,155.25476 262.06773,152.80558 263.1795,150.50032 264.45915,147.84697 266.13702,145.36258 268.0688,143.13862 269.84391,141.09503 271.21852,139.81689 273.2953,138.08072 274.06297,137.43896 275.55301,136.30033 276.49864,135.97327 277.50777,135.62425 278.86035,136.5461 279.70198,135.88897 280.06726,135.60377 279.88227,133.99189 279.87057,133.52861 279.83648,132.17793 279.17869,131.73208 278.3532,130.66247 277.82908,129.98336 276.828,130.01546 275.99285,129.81948 274.78421,129.53585 273.27836,130.313 272.11513,130.74677 270.04002,131.52058 269.25075,132.0946 267.56301,133.52861 265.0192,135.68999 262.57811,138.01185 260.48195,140.60967 258.59266,142.95111 257.11673,145.60252 255.59264,148.19653 254.14072,150.66771 253.25588,153.05138 252.3893,155.78338 251.56736,158.37468 250.46238,161.15844 250.53474,163.87602 250.59401,166.10201 250.99452,168.14517 252.30501,169.9455 253.42952,171.49033 255.03351,172.36994 256.94142,172.47445 260.56766,172.6731 263.97811,171.27463 266.88862,169.10252 269.35756,167.25995 270.74971,164.30018 272.62091,161.85286 273.59719,160.576 275.48706,157.97514 275.48706,157.97514 275.48706,157.97514 276.80757,163.47368 278.6061,165.56199 279.90221,167.06693 281.277,168.1426 283.24251,168.42813 286.2235,168.86118 289.46362,168.38521 292.17813,167.07936 295.90517,165.28642 301.28236,158.64952 301.28236,158.64952 301.28236,158.64952 305.64504,150.8985 306.84605,146.51056 307.84186,142.87235 308.66092,138.9577 308.19482,135.21458 307.73581,131.52839 306.35183,127.7851 304.3171,124.67728 302.68094,122.17823 300.667,120.18361 298.07902,118.6921 295.04566,116.94391 291.60668,115.74765 288.13181,115.32016 284.04626,114.81754 279.84104,115.43187 275.82425,116.33174 271.6073,117.27646 268.44687,118.72196 264.61257,120.71526 261.16874,122.50558 258.12442,124.84491 255.25545,127.45913 251.96202,130.46012 249.77189,133.23624 247.5,137.06914 245.52737,140.39717 242.31378,144.81074 241.26192,148.53372 239.75718,153.85961 239.19858,159.35716 239.40736,164.8876 239.53642,168.30638 239.2885,171.83023 240.92473,174.83481 242.46522,177.66358 244.81054,180.14334 247.5,181.91587 250.29032,183.75487 254.47564,184.6503 257.7844,185.11921 261.40804,185.63275 264.1454,184.75373 267.73161,184.02333 270.53578,183.45221 271.61438,181.97581 274.47548,181.91588 275.2397,181.89987 277.13118,182.26719 277.84742,182.00017 278.84097,181.62976 279.46878,180.7054 279.87057,179.72412 280.26323,178.76514 280.44799,177.72108 280.54496,176.68937 280.71333,174.89802 281.70081,172.51211 280.37636,171.29428 Z"
         id="path26"
         sodipodi:nodetypes="sssssssssssssssssssssssssssssssssssssssssssssscssscssssssssssssssssssss"
         inkscape:label="@" />
      <path
         style="fill:#ffffff;fill-opacity:1;stroke:none;stroke-width:1px;stroke-linecap:butt;stroke-linejoin:miter;stroke-opacity:1"
         d="M 350.97158,186.22652 C 353.66809,184.25591 351.47537,179.68628 351.92531,176.43952 354.38629,158.68116 361.46258,123.50766 361.46258,123.50766 L 364.08533,119.21589 C 364.08533,119.21589 359.31627,116.67522 356.69394,116.33178 353.44275,115.90598 348.1104,118.85766 348.1104,118.85766 V 124.10374 L 343.34177,154.98066 H 341.67275 L 337.6194,131.13748 C 337.6194,131.13748 337.55937,123.46583 335.47352,120.40805 334.52841,119.02254 333.08835,117.6005 331.42018,117.42707 327.88514,117.05955 326.58833,115.7357 322.83664,116.45099 320.68659,116.86092 318.63536,118.48256 318.30643,120.64648 315.66125,138.04823 312.34305,155.3131 308.32914,172.50888 307.79978,174.7767 308.32914,176.73844 305.90798,179.06227 305.26116,179.68309 305.70192,181.28455 306.50406,181.68501 309.18705,183.02448 311.26367,183.36981 313.5378,183.96141 316.12484,184.63441 318.50433,186.01287 320.69075,184.55749 321.76251,183.84408 322.12849,182.95156 322.35978,181.68501 322.75247,179.53459 321.52526,175.12814 321.52526,175.12814 L 326.65154,150.2062 332.85077,177.15481 C 332.85077,177.15481 332.10299,180.19097 332.37391,181.68502 332.50075,182.38448 332.78982,183.12761 333.32763,183.59247 335.35357,185.34361 338.31602,185.66707 340.95745,186.1073 344.25031,186.65611 348.20043,188.25167 350.97158,186.22652 Z"
         id="path27"
         sodipodi:nodetypes="ssccscccccsssssssssscccssss"
         inkscape:label="N" />
      <g
         id="g28"
         inkscape:label="!"
         style="fill:#ffffff;fill-opacity:1">
        <path
           style="fill:#ffffff;fill-opacity:1;stroke:none;stroke-width:1px;stroke-linecap:butt;stroke-linejoin:miter;stroke-opacity:1"
           d="M 372.66888,118.5006 C 371.26489,129.41158 368.98391,139.28784 367.06573,149.49673 366.92498,150.24585 366.83938,151.01325 366.58887,151.73314 366.23562,152.74829 365.42322,153.58131 365.15828,154.62301 364.90342,155.62507 365.83738,157.21938 366.41004,158.08027 367.68705,160 368.72154,160.13982 370.6422,161.06067 372.49342,161.94823 374.09411,163.37997 376.12614,163.08734 377.04353,162.95523 377.3585,162.0819 377.85477,161.2991 378.28244,160.62451 378.28786,159.46837 378.39124,158.67635 380.16775,145.0658 382.33701,133.95093 385.30576,119.2099 385.53872,118.05315 382.89062,116.79583 381.8485,116.24235 380.51161,115.53231 380.02383,116.20891 378.51045,116.24235 377.22736,116.2707 375.68096,115.58896 374.57633,116.24235 373.56194,116.84236 372.81929,117.33167 372.66888,118.5006 Z"
           id="path28"
           sodipodi:nodetypes="ssssssssssssss"
           inkscape:label="|" />
        <path
           style="fill:#ffffff;fill-opacity:1;stroke:none;stroke-width:1px;stroke-linecap:butt;stroke-linejoin:miter;stroke-opacity:1"
           d="M 372.85167,186.72088 C 374.35003,184.28342 373.77842,182.27441 374.3747,179.55551 374.87349,177.28114 375.89268,174.53258 376.22361,171.80007 376.32406,170.97067 374.55927,170.07541 373.77895,169.7769 370.96982,168.70229 370.26131,168.20279 367.70947,168.00664 366.62714,167.92345 365.32612,167.46313 364.50682,168.17524 363.76904,168.8165 363.86292,170.25309 363.66315,171.20998 363.15002,173.66792 363.36568,175.94038 362.48297,178.29104 362.07989,179.36444 361.0232,180.07427 360.45981,181.07289 359.45537,182.37136 359.81167,183.19709 360.9656,184.19193 362.4688,185.39175 364.40571,185.92384 366.1921,186.63658 367.18248,187.03173 368.16122,187.61015 369.22684,187.64816 370.47323,187.69262 372.19853,187.78337 372.85167,186.72088 Z"
           id="path29"
           sodipodi:nodetypes="sssssssssssss"
           inkscape:label="." />
      </g>
      <path
         style="fill:#ffffff;fill-opacity:1;stroke:none;stroke-width:1px;stroke-linecap:butt;stroke-linejoin:miter;stroke-opacity:1"
         d="M 412.24855,179.3007 C 412.32136,177.47417 411.80416,175.58991 412.24855,173.81677 415.71134,160 420.1168,131.37591 420.1168,131.37591 420.1168,131.37591 423.28866,129.12075 425.66034,128.63395 426.82815,128.39424 428.23674,128.21824 429.41564,128.39551 430.48463,128.55626 431.73367,129.29462 432.81329,129.34924 433.62277,129.3902 435.19367,128.9857 435.8533,128.51473 436.75189,127.87313 436.4907,125.17761 436.74742,124.10374 437.37681,121.47103 436.90386,121.59976 437.16468,118.85824 437.24501,118.01381 436.36454,116.31608 435.61487,115.91921 434.84221,115.51017 433.86637,115.91921 432.99212,115.91921 432.11787,115.91921 430.22383,116.40932 429.35603,116.51529 422.52853,117.34905 410.3411,120.88491 410.3411,120.88491 410.3411,120.88491 401.51536,123.26657 396.98892,123.7461 394.58,123.68994 393.33423,123.38209 391.40871,125.10685 390.52218,126.13569 389.78543,127.40879 389.97812,128.75316 390.20365,130.32662 391.45815,131.1323 392.41781,132.39947 393.44469,133.7554 393.31817,135.86787 394.84303,136.62141 395.84056,137.11436 398.54709,136.09376 399.61415,135.77843 402.41198,134.95163 404.85717,134.71396 404.85717,134.71396 404.85717,134.71396 404.96694,136.31112 404.85717,137.09828 403.0837,149.81567 401.42181,157.97333 399.28912,174.94504 399.25694,175.20111 398.41161,177.47666 398.3599,177.72762 398.08231,179.07482 396.61721,178.65048 396.03519,179.89678 395.36512,181.3316 396.63781,183.13824 398.06187,183.8309 401.8911,185.69344 401.45453,185.23037 404.67834,185.31647 406.84391,185.3743 409.46798,186.13256 410.81796,184.43828 412.06243,182.87641 412.16901,181.29615 412.24855,179.3007 Z"
         id="path30"
         sodipodi:nodetypes="sscssssssssscsssssscssssssss"
         inkscape:label="T" />
      <path
         style="fill:#ffffff;fill-opacity:1;stroke:none;stroke-width:1px;stroke-linecap:butt;stroke-linejoin:miter;stroke-opacity:1"
         d="M 460.77487,181.57868 C 461.2121,179.48836 460.77487,175.172 460.77487,175.172 460.77487,175.172 476.75012,145.59355 487.58175,129.81948 488.68745,128.20926 492.79874,127.15086 492.79874,127.15086 L 492.97684,121.44502 C 492.97684,121.44502 490.3673,117.61096 487.61915,116.57192 485.8141,115.88946 481.89037,115.73741 481.89037,115.73741 L 461.79492,146.67916 C 461.79492,146.67916 459.93963,145.06192 459.73435,143.93719 458.36268,136.42157 457.61244,125.18059 457.61244,125.18059 457.61244,125.18059 459.00795,118.40473 457.05375,116.57193 455.42647,115.04573 451.88604,116.25235 449.83302,117.16801 445.96485,118.89321 444.49901,120.77042 441.50159,123.8244 443.24587,126.21797 443.80054,130.79675 444.76168,135.02407 446.89766,144.41864 452.33305,163.8414 452.33305,163.8414 452.33305,163.8414 447.95532,171.48788 444.38358,177.72762 443.46544,179.3316 445.093,181.15997 446.36584,182.49997 448.23593,184.46874 450.89046,184.95053 453.54215,185.5352 455.33897,185.93139 456.85582,186.94759 458.30026,186.2505 460.09371,185.38497 460.38918,183.42257 460.77487,181.57868 Z"
         id="path31"
         sodipodi:nodetypes="scsccsccscsscscsssss"
         inkscape:label="Y" />
    </g>
    <path
       style="display:none;fill:#ffffff;fill-opacity:1;stroke:none;stroke-width:1px;stroke-linecap:butt;stroke-linejoin:miter;stroke-opacity:1"
       d="M 247.5,76.298171 241.29296,81.066806 227.94078,76.775034 206.48192,89.173487 193.12974,84.404851 184.5462,87.266033 168.33284,88.21976 160.22616,96.803304 145.44339,97.757031 132.09121,88.696623 122.07707,99.187622 109.67862,95.372713 97.280168,93.465259 86.312305,106.81744 74.390716,108.72489 61.992264,101.09508 49.593811,100.14135 41.963994,114.44726 40.05654,122.07707 42.917721,133.04493 31.949859,143.05907 33.857313,156.41125 26.70436,167.37911 30.519268,178.82384 29.565541,193.12974 21.935724,206.00506 37.672222,208.86624 51.024402,199.32897 73.436989,211.72742 84.881715,202.66702 109.20176,208.86624 122.55394,206.95879 133.5218,216.49606 145.44339,217.44979 191.69915,229.37138 205.5282,222.21842 495,222.54768 V 76.880109 Z"
       id="path36"
       sodipodi:nodetypes="ccccccccccccccccccccccccccccccccccccccc" />
  </g>
</svg>
